# Blender v2.83.4 OBJ File: ''
# www.blender.org
mtllib skybox.mtl
o Cube
v -20.189287 -20.189287 20.189287
v -20.189287 20.189287 20.189287
v -20.189287 -20.189287 -20.189287
v -20.189287 20.189287 -20.189287
v 20.189287 -20.189287 20.189287
v 20.189287 20.189287 20.189287
v 20.189287 -20.189287 -20.189287
v 20.189287 20.189287 -20.189287
vt 0.499551 0.333334
vt 0.749728 0.332673
vt 0.748846 -0.000659
vt 0.498669 0.000002
vt 0.750610 0.666005
vt 1.000787 0.665344
vt 0.999906 0.332012
vt 0.000077 0.667988
vt 0.250255 0.667327
vt 0.249373 0.333995
vt -0.000804 0.334656
vt 0.501314 0.999998
vt 0.751492 0.999337
vt 0.500432 0.666666
vn 0.0000 -1.0000 0.0000
vn 0.0000 0.0000 -1.0000
vn 1.0000 0.0000 0.0000
vn 0.0000 1.0000 0.0000
vn -1.0000 0.0000 0.0000
vn 0.0000 0.0000 1.0000
usemtl Material.001
s off
f 1/1/1 3/2/1 7/3/1 5/4/1
f 4/5/2 8/6/2 7/7/2 3/2/2
f 8/8/3 6/9/3 5/10/3 7/11/3
f 6/12/4 8/13/4 4/5/4 2/14/4
f 2/14/5 4/5/5 3/2/5 1/1/5
f 6/9/6 2/14/6 1/1/6 5/10/6
